<svg width="78" height="78" viewBox="0 0 78 78" fill="none" xmlns="http://www.w3.org/2000/svg">
<circle cx="38.75" cy="38.75" r="38.75" fill="black"/>
<path d="M23.3689 17.3251V20.2202H21.1351V31.7917H17.3732V20.2202H15.1482V17.3251H23.3689ZM32.1444 17.3251V31.7917H28.3825V25.7155H27.2566V31.7917H23.4948V17.3251H27.2566V22.4988H28.3825V17.3251H32.1444ZM32.9314 17.3251H39.2041V20.2202H36.6933V22.9634H39.0433V25.7155H36.6933V28.8966H39.4543V31.7917H32.9314V17.3251Z" fill="white"/>
<path d="M27.3989 32.6631V47.1297H24.1106V37.3632L22.7971 47.1297H20.4649L19.0799 37.5865V47.1297H15.7916V32.6631H20.6615C20.8044 33.5328 20.9563 34.5574 21.1172 35.7369L21.6354 39.4183L22.4933 32.6631H27.3989ZM36.773 41.134C36.773 42.5875 36.7372 43.618 36.6657 44.2256C36.6002 44.8273 36.3858 45.3783 36.0224 45.8787C35.665 46.3791 35.1795 46.7633 34.5659 47.0314C33.9523 47.2995 33.2375 47.4335 32.4214 47.4335C31.6469 47.4335 30.95 47.3084 30.3304 47.0582C29.7169 46.8021 29.2224 46.4208 28.8471 45.9145C28.4718 45.4081 28.2485 44.8571 28.177 44.2614C28.1055 43.6657 28.0697 42.6232 28.0697 41.134V38.6588C28.0697 37.2053 28.1025 36.1777 28.168 35.576C28.2395 34.9684 28.454 34.4144 28.8114 33.914C29.1748 33.4136 29.6633 33.0294 30.2768 32.7613C30.8904 32.4933 31.6052 32.3593 32.4214 32.3593C33.1958 32.3593 33.8898 32.4873 34.5033 32.7435C35.1229 32.9937 35.6203 33.3719 35.9956 33.8783C36.3709 34.3846 36.5943 34.9357 36.6657 35.5314C36.7372 36.1271 36.773 37.1696 36.773 38.6588V41.134ZM33.0111 36.3802C33.0111 35.7071 32.9724 35.2782 32.8949 35.0935C32.8235 34.9029 32.6716 34.8076 32.4392 34.8076C32.2426 34.8076 32.0907 34.885 31.9835 35.0399C31.8822 35.1888 31.8316 35.6356 31.8316 36.3802V43.1355C31.8316 43.9755 31.8644 44.4937 31.9299 44.6903C32.0014 44.8869 32.1622 44.9852 32.4124 44.9852C32.6686 44.9852 32.8324 44.872 32.9039 44.6456C32.9754 44.4193 33.0111 43.8801 33.0111 43.0283V36.3802ZM49.06 32.6631V47.1297H45.7718V37.3632L44.4582 47.1297H42.1261L40.7411 37.5865V47.1297H37.4528V32.6631H42.3227C42.4656 33.5328 42.6175 34.5574 42.7784 35.7369L43.2966 39.4183L44.1544 32.6631H49.06ZM51.8308 32.6631V33.9587C51.8308 34.6319 51.7504 35.1888 51.5895 35.6297C51.4287 36.0645 51.1487 36.4339 50.7496 36.7377C50.3564 37.0355 49.9096 37.2381 49.4092 37.3453V36.2998C49.7667 36.1032 49.9692 35.8352 50.0169 35.4956H49.4092V32.6631H51.8308ZM60.1505 37.0415H56.6567V35.9692C56.6567 35.4688 56.612 35.1501 56.5227 35.0131C56.4333 34.8761 56.2844 34.8076 56.0759 34.8076C55.8495 34.8076 55.6768 34.8999 55.5576 35.0846C55.4444 35.2693 55.3878 35.5492 55.3878 35.9245C55.3878 36.4071 55.4534 36.7704 55.5844 37.0147C55.7095 37.2589 56.064 37.5538 56.6478 37.8993C58.3217 38.8941 59.3761 39.7102 59.8109 40.3476C60.2458 40.985 60.4632 42.0126 60.4632 43.4304C60.4632 44.461 60.3411 45.2205 60.0969 45.7089C59.8586 46.1974 59.3939 46.6085 58.7029 46.9421C58.0119 47.2697 57.2077 47.4335 56.2903 47.4335C55.2836 47.4335 54.4228 47.2429 53.708 46.8616C52.9991 46.4804 52.5344 45.9949 52.314 45.4051C52.0936 44.8154 51.9834 43.9784 51.9834 42.8943V41.9471H55.4772V43.7074C55.4772 44.2495 55.5249 44.598 55.6202 44.7528C55.7214 44.9077 55.8972 44.9852 56.1474 44.9852C56.3976 44.9852 56.5822 44.8869 56.7014 44.6903C56.8265 44.4937 56.889 44.2018 56.889 43.8146C56.889 42.9628 56.7729 42.4058 56.5405 42.1437C56.3022 41.8816 55.7155 41.4437 54.7802 40.8301C53.845 40.2106 53.2254 39.7609 52.9216 39.4809C52.6178 39.2009 52.3647 38.8137 52.1621 38.3193C51.9655 37.8248 51.8672 37.1934 51.8672 36.4249C51.8672 35.3169 52.0072 34.5068 52.2872 33.9945C52.5731 33.4822 53.0318 33.083 53.6633 32.7971C54.2947 32.5052 55.0572 32.3593 55.9508 32.3593C56.9277 32.3593 57.7587 32.5171 58.4438 32.8328C59.1348 33.1486 59.5905 33.5477 59.8109 34.0302C60.0373 34.5068 60.1505 35.3199 60.1505 36.4696V37.0415Z" fill="white"/>
<path d="M24.4412 48.0011V62.4677H20.6793V56.3915H19.5535V62.4677H15.7916V48.0011H19.5535V53.1747H20.6793V48.0011H24.4412ZM33.7796 48.0011V57.6693C33.7796 58.7654 33.7438 59.5369 33.6723 59.9836C33.6008 60.4245 33.3894 60.8802 33.0379 61.3508C32.6864 61.8154 32.2218 62.1699 31.644 62.4141C31.0721 62.6524 30.396 62.7715 29.6156 62.7715C28.7518 62.7715 27.9893 62.6286 27.3281 62.3426C26.6669 62.0567 26.1724 61.6844 25.8448 61.2257C25.5172 60.767 25.3236 60.2845 25.264 59.7781C25.2044 59.2658 25.1746 58.1935 25.1746 56.5613V48.0011H28.9365V58.8488C28.9365 59.4803 28.9693 59.8853 29.0348 60.0641C29.1063 60.2368 29.2463 60.3232 29.4548 60.3232C29.693 60.3232 29.8449 60.2279 29.9105 60.0372C29.982 59.8407 30.0177 59.382 30.0177 58.6612V48.0011H33.7796ZM34.5041 48.0011H38.257C39.4424 48.0011 40.339 48.0934 40.9466 48.2781C41.5602 48.4627 42.0546 48.838 42.4299 49.404C42.8052 49.9639 42.9928 50.8694 42.9928 52.1204C42.9928 52.9663 42.8588 53.556 42.5907 53.8896C42.3286 54.2232 41.8074 54.4793 41.027 54.658C41.8967 54.8546 42.4865 55.1823 42.7962 55.641C43.106 56.0937 43.2609 56.7907 43.2609 57.7319V59.0722C43.2609 60.0492 43.1477 60.7729 42.9213 61.2435C42.7009 61.7141 42.3465 62.0358 41.858 62.2086C41.3695 62.3813 40.3687 62.4677 38.8557 62.4677H34.5041V48.0011ZM38.2659 50.4762V53.693C38.4268 53.6871 38.5519 53.6841 38.6412 53.6841C39.0105 53.6841 39.2458 53.5947 39.3471 53.416C39.4484 53.2313 39.499 52.7101 39.499 51.8523C39.499 51.3996 39.4573 51.0838 39.3739 50.9051C39.2905 50.7205 39.1803 50.6043 39.0433 50.5566C38.9123 50.509 38.6531 50.4822 38.2659 50.4762ZM38.2659 55.9448V59.9926C38.7961 59.9747 39.1327 59.8913 39.2756 59.7424C39.4246 59.5934 39.499 59.2271 39.499 58.6433V57.294C39.499 56.6745 39.4335 56.2992 39.3024 56.1682C39.1714 56.0371 38.8259 55.9626 38.2659 55.9448Z" fill="white"/>
</svg>
