<svg width="16" height="18" viewBox="0 0 16 18" fill="none" xmlns="http://www.w3.org/2000/svg">
<path d="M6 10C5.16667 10 4.45833 9.70833 3.875 9.125C3.29167 8.54167 3 7.83333 3 7C3 6.63333 3.05833 6.2875 3.175 5.9625C3.29167 5.6375 3.46667 5.34167 3.7 5.075C3.63333 4.90833 3.58333 4.73333 3.55 4.55C3.51667 4.36667 3.5 4.18333 3.5 4C3.5 3.36667 3.67083 2.80417 4.0125 2.3125C4.35417 1.82083 4.8 1.45833 5.35 1.225C5.68333 0.841667 6.075 0.541667 6.525 0.325C6.975 0.108333 7.46667 0 8 0C8.53333 0 9.025 0.108333 9.475 0.325C9.925 0.541667 10.3167 0.841667 10.65 1.225C11.2 1.45833 11.6458 1.82083 11.9875 2.3125C12.3292 2.80417 12.5 3.36667 12.5 4C12.5 4.18333 12.4833 4.36667 12.45 4.55C12.4167 4.73333 12.3667 4.90833 12.3 5.075C12.5333 5.34167 12.7083 5.6375 12.825 5.9625C12.9417 6.2875 13 6.63333 13 7C13 7.83333 12.7083 8.54167 12.125 9.125C11.5417 9.70833 10.8333 10 10 10H6ZM0 18V15.2C0 14.6333 0.145833 14.1125 0.4375 13.6375C0.729167 13.1625 1.11667 12.8 1.6 12.55C2.63333 12.0333 3.68333 11.6458 4.75 11.3875C5.81667 11.1292 6.9 11 8 11C9.1 11 10.1833 11.1292 11.25 11.3875C12.3167 11.6458 13.3667 12.0333 14.4 12.55C14.8833 12.8 15.2708 13.1625 15.5625 13.6375C15.8542 14.1125 16 14.6333 16 15.2V18H0Z" fill="black" fill-opacity="0.7"/>
</svg>
